Land_normalized_Motion_pl07
version=1
nRows=22
nColumns=43
inDegrees=yes
endheader
time		pelvis_tilt		pelvis_list		pelvis_rotation		pelvis_tx		pelvis_ty		pelvis_tz		hip_flexion_r		hip_adduction_r		hip_rotation_r		knee_angle_r		ankle_angle_r		subtalar_angle_r		mtp_angle_r		hip_flexion_l		hip_adduction_l		hip_rotation_l		knee_angle_l		ankle_angle_l		subtalar_angle_l		mtp_angle_l		lumbar_extension		lumbar_bending		lumbar_rotation		neck_flexion		neck_lateral_bending		neck_rotation		arm_flex_r		arm_add_r		arm_rot_r		elbow_flex_r		pro_sup_r		wrist_flex_r		wrist_dev_r		hand_finger_flex_r		arm_flex_l		arm_add_l		arm_rot_l		elbow_flex_l		pro_sup_l		wrist_flex_l		wrist_dev_l		hand_finger_flex_l		
3.020657		0.161840		1.448647		93.403519		-0.014810		0.682395		0.499658		53.757970		-7.364546		-8.555046		-82.743080		21.843820		-5.389730		12.019394		52.739581		-7.690863		-6.322815		-81.534657		26.315317		4.102326		14.943579		-32.874469		-0.043760		0.564457		-10.547119		3.177291		-2.278681		-26.937523		-21.855353		-15.437675		42.725194		120.144785		-13.638195		-12.721170		-32.841268		-39.018734		-20.483329		-22.491133		54.354616		136.346066		-27.703837		-8.433867		-21.977887		
3.023283		0.106998		1.322352		93.412063		-0.014596		0.673432		0.498497		55.130731		-7.286557		-8.171058		-84.859262		22.313805		-5.950959		11.896908		54.220025		-7.514488		-5.994257		-83.766168		26.428006		3.270317		14.789556		-33.255196		-0.113687		0.597657		-9.506405		3.296000		-2.387826		-25.286619		-21.970121		-15.253291		42.663930		120.245067		-13.944503		-12.791894		-32.932146		-36.938512		-20.659702		-22.158175		54.117734		136.498589		-28.145647		-8.438269		-22.171475		
3.025909		0.073325		1.002085		93.411960		-0.014326		0.664222		0.497396		56.754656		-7.197722		-7.750459		-87.036916		22.555809		-6.375494		11.713657		55.965294		-7.354635		-5.646526		-86.049210		26.264581		2.408620		14.575019		-33.385169		-0.183147		0.655212		-8.690879		3.379593		-2.530641		-23.664025		-22.060673		-15.065733		42.581550		120.350493		-14.395630		-12.923766		-33.055653		-34.837696		-20.879798		-21.701265		53.821818		136.676280		-28.755042		-8.436521		-22.404603		
3.028535		0.072345		0.987557		93.374967		-0.014038		0.655908		0.496265		57.978991		-7.057753		-7.336420		-89.117167		22.889508		-6.413850		11.697576		57.302950		-7.294244		-5.286690		-88.211818		26.233933		2.042073		14.536406		-33.898275		-0.216030		0.757062		-7.747328		3.469696		-2.623790		-21.925916		-22.178848		-14.943467		42.541596		120.382117		-14.600199		-12.955061		-33.090556		-32.653375		-21.047296		-21.335597		53.641590		136.717854		-28.865082		-8.314976		-22.427320		
3.031162		0.092832		0.916562		93.330402		-0.013763		0.647574		0.495170		59.282205		-6.899346		-6.885142		-91.188920		23.071380		-6.321211		11.693946		58.717750		-7.236374		-4.903343		-90.360581		26.040989		1.640182		14.507899		-34.343575		-0.237874		0.897096		-6.786432		3.557451		-2.761384		-20.230088		-22.293891		-14.825851		42.548601		120.419184		-14.901008		-13.046673		-33.155440		-30.462234		-21.217461		-20.911725		53.484388		136.787821		-29.045597		-8.215400		-22.467286		
3.033788		0.112462		1.013780		93.273819		-0.013511		0.639781		0.494016		60.371280		-6.738627		-6.423682		-93.183243		23.168160		-6.060799		11.788335		59.891257		-7.202070		-4.542267		-92.413087		25.832278		1.351125		14.585515		-34.992246		-0.256619		1.054530		-5.786823		3.643499		-2.893950		-18.503983		-22.416714		-14.737586		42.603056		120.421389		-15.145261		-13.128068		-33.200746		-28.224925		-21.356618		-20.518817		53.388921		136.844496		-29.027887		-8.113995		-22.409881		
3.036414		0.133283		1.141329		93.221513		-0.013276		0.632197		0.492822		61.415061		-6.581391		-5.952526		-95.115158		23.173550		-5.739844		11.898899		61.001766		-7.169224		-4.188734		-94.397716		25.590124		1.086788		14.686662		-35.669675		-0.272734		1.212755		-4.808608		3.734993		-3.021489		-16.779143		-22.539468		-14.648188		42.692088		120.416729		-15.384927		-13.221501		-33.241334		-25.981378		-21.473515		-20.132540		53.332784		136.897470		-28.984680		-8.019715		-22.331733		
3.039040		0.140692		1.411850		93.186861		-0.013090		0.625138		0.491567		62.260433		-6.440337		-5.482093		-96.949118		23.090074		-5.442076		11.993075		61.890057		-7.119862		-3.836894		-96.273549		25.407053		0.970697		14.779195		-36.505919		-0.288925		1.314381		-3.852560		3.853133		-3.055904		-14.963169		-22.676355		-14.533153		42.787041		120.412230		-15.463672		-13.250432		-33.235982		-23.728315		-21.535226		-19.832760		53.328329		136.903662		-28.781730		-7.925168		-22.208947		
3.041667		0.150750		1.697403		93.143203		-0.012911		0.618187		0.490265		63.096477		-6.292073		-4.983846		-98.756187		22.901116		-5.007110		12.113027		62.747966		-7.083659		-3.489306		-98.126421		25.124233		0.827180		14.900674		-37.361079		-0.317889		1.451078		-2.832503		3.986629		-3.139933		-13.198513		-22.810168		-14.420300		42.941650		120.404912		-15.637436		-13.340303		-33.258491		-21.505971		-21.607261		-19.486841		53.414429		136.922498		-28.619676		-7.873198		-22.077540		
3.044293		0.110673		2.025369		93.057683		-0.012716		0.611350		0.488876		63.902772		-6.138187		-4.399296		-100.562712		22.693657		-4.261686		12.433691		63.526516		-7.051263		-3.219341		-99.955813		24.694557		0.516591		15.282921		-38.256833		-0.422632		1.686090		-1.799087		4.124848		-3.426377		-11.585714		-22.912318		-14.339567		43.189483		120.302116		-16.188200		-13.620346		-33.328258		-19.295585		-21.749077		-18.934930		53.608535		136.928774		-28.672984		-7.863274		-21.846768		
3.046919		0.080832		2.387954		93.030804		-0.012559		0.604917		0.487395		64.600448		-6.023750		-3.902095		-102.267364		22.474222		-3.826466		12.646090		64.196881		-6.992534		-2.905803		-101.672554		24.449107		0.447503		15.551674		-39.143423		-0.485608		1.779387		-0.982542		4.280809		-3.508590		-9.770489		-23.011380		-14.190542		43.321989		120.237997		-16.375137		-13.714513		-33.296914		-17.065322		-21.800068		-18.537235		53.720327		136.884839		-28.590787		-7.809844		-21.653472		
3.049545		0.070883		2.792599		93.022721		-0.012403		0.598738		0.485885		65.239121		-5.886960		-3.418740		-103.932062		22.132026		-3.422254		12.806982		64.797754		-6.915911		-2.513145		-103.337485		24.198434		0.543499		15.747870		-40.064918		-0.529219		1.824822		-0.187455		4.485409		-3.526417		-7.887533		-23.124498		-13.977427		43.454767		120.234163		-16.451523		-13.772119		-33.256013		-14.905074		-21.846874		-18.158822		53.917815		136.844170		-28.495166		-7.813281		-21.511823		
3.052172		0.068609		3.218957		93.018047		-0.012242		0.592774		0.484369		65.836085		-5.732900		-2.937177		-105.558170		21.758409		-2.966728		12.984535		65.348399		-6.828115		-2.089848		-104.949170		23.933751		0.698710		15.947394		-41.002052		-0.574852		1.864923		0.571929		4.713281		-3.570763		-5.980188		-23.230530		-13.735953		43.594183		120.257297		-16.566494		-13.850583		-33.240907		-12.775943		-21.904103		-17.743437		54.175954		136.812435		-28.449582		-7.857411		-21.397433		
3.054798		0.070308		3.682894		93.036587		-0.011944		0.587033		0.482782		66.373233		-5.614109		-2.520701		-107.167344		21.331865		-2.429059		13.216837		65.834605		-6.785001		-1.678285		-106.516814		23.646146		0.946896		16.192528		-41.957560		-0.628507		1.886614		1.315063		4.968170		-3.646996		-4.057946		-23.312014		-13.412871		43.705536		120.315182		-16.724164		-13.959501		-33.245158		-10.648131		-22.018355		-17.271299		54.449283		136.790861		-28.474196		-7.932192		-21.296741		
3.057424		0.078802		4.153712		93.071727		-0.011673		0.581512		0.481211		66.867672		-5.496166		-2.127070		-108.724195		20.921593		-1.903400		13.486574		66.277001		-6.717136		-1.236790		-108.018946		23.390707		1.262361		16.465447		-42.903766		-0.663369		1.882909		1.970017		5.219689		-3.731916		-2.083138		-23.394428		-13.043725		43.801373		120.402550		-16.874465		-14.072732		-33.254756		-8.530937		-22.127169		-16.765122		54.734760		136.799119		-28.536255		-8.023269		-21.206201		
3.060051		0.092548		4.625464		93.125931		-0.011426		0.576163		0.479643		67.332027		-5.385687		-1.763131		-110.231547		20.497784		-1.392771		13.780511		66.696715		-6.635183		-0.770847		-109.468947		23.142138		1.637829		16.753968		-43.826970		-0.667877		1.852928		2.569995		5.465146		-3.823669		-0.064498		-23.477949		-12.619725		43.877038		120.529500		-16.985507		-14.186385		-33.258848		-6.422460		-22.242226		-16.229145		55.020128		136.868192		-28.606347		-8.127674		-21.116270		
3.062677		0.118840		5.086995		93.199716		-0.011213		0.570943		0.478087		67.780291		-5.300475		-1.435098		-111.675492		20.088045		-0.926174		14.078073		67.110564		-6.561031		-0.310218		-110.858748		22.911368		2.036372		17.041501		-44.714581		-0.652609		1.796334		3.091198		5.687001		-3.921494		1.969002		-23.566148		-12.167565		43.974157		120.696446		-17.050787		-14.308065		-33.252803		-4.341024		-22.355619		-15.693753		55.326896		137.014705		-28.673950		-8.241176		-21.025178		
3.065303		0.142530		5.537887		93.286782		-0.011033		0.565846		0.476530		68.208037		-5.235424		-1.144224		-113.067472		19.668696		-0.473936		14.387612		67.509238		-6.497259		0.130139		-112.202381		22.676609		2.470189		17.340498		-45.571875		-0.617224		1.722558		3.574088		5.890007		-4.029325		4.014003		-23.652455		-11.675925		44.079520		120.913463		-17.078277		-14.442938		-33.233405		-2.265703		-22.466976		-15.144778		55.641106		137.250381		-28.744493		-8.357885		-20.925032		
3.067929		0.184592		6.029524		93.396010		-0.010854		0.560933		0.474963		68.547516		-5.196815		-0.914638		-114.387514		19.204506		-0.091773		15.704504		67.848421		-6.469636		0.568472		-113.490044		22.384015		2.929310		18.663591		-46.451108		-0.558180		1.653239		3.998132		6.070829		-4.128331		6.052798		-23.738711		-11.131881		44.187746		121.313950		-17.231391		-14.584070		-33.107865		-0.176759		-22.566264		-14.561682		55.966341		137.903832		-29.222277		-8.261969		-20.260160		
3.070556		0.285845		6.651449		93.518478		-0.010685		0.556352		0.473381		68.674578		-5.167574		-0.809888		-115.583626		18.567078		0.029115		20.726593		68.033071		-6.497766		1.070428		-114.703917		21.862812		3.343361		23.756777		-47.451957		-0.434091		1.627764		4.343697		6.235119		-4.174869		8.100308		-23.815434		-10.523850		44.279102		122.197368		-17.874817		-14.673823		-32.600493		1.962229		-22.610764		-13.878809		56.282971		139.795833		-31.106836		-7.405429		-17.477195		
3.073182		0.251278		6.948218		93.610100		-0.010594		0.551278		0.471865		69.219437		-5.144743		-0.501358		-116.827922		18.150498		0.355333		20.792820		68.526767		-6.503074		1.350167		-115.919954		21.678557		3.766698		23.857783		-48.079046		-0.421834		1.472242		4.720489		6.360512		-4.313367		10.104908		-23.832800		-10.115598		44.546363		122.360365		-17.633511		-14.793468		-32.492694		3.958598		-22.714761		-13.368061		56.641759		139.945941		-30.966080		-7.713212		-17.392389		
3.075808		0.210335		7.269662		93.685269		-0.010538		0.546283		0.470339		69.723525		-5.143942		-0.218570		-118.038943		17.737806		0.726513		20.892963		68.967569		-6.524595		1.621186		-117.094389		21.491177		4.292767		23.995230		-48.707074		-0.424301		1.361669		5.025999		6.483899		-4.408799		12.060245		-23.898968		-9.638124		44.825597		122.652558		-17.447332		-14.950546		-32.399709		5.960338		-22.816271		-12.774633		57.038815		140.209447		-30.950565		-7.990847		-17.338966		
